<svg width="192" height="192" viewBox="0 0 192 192" fill="none" xmlns="http://www.w3.org/2000/svg">
  <rect width="192" height="192" rx="42" fill="#1B4332"/>
  <path d="M46 54C46 49.6 49.6 46 54 46H82C90 46 96 52 96 60V142C96 134 90 128 82 128H54C49.6 128 46 124.4 46 120V54Z" stroke="#F6F8F5" stroke-width="10" stroke-linejoin="round"/>
  <path d="M146 54C146 49.6 142.4 46 138 46H110C102 46 96 52 96 60V142C96 134 102 128 110 128H138C142.4 128 146 124.4 146 120V54Z" stroke="#F6F8F5" stroke-width="10" stroke-linejoin="round"/>
  <path d="M96 60V146" stroke="#F6F8F5" stroke-width="10" stroke-linecap="round"/>
  <path d="M64 70H80" stroke="#A8D5BA" stroke-width="8" stroke-linecap="round"/>
  <path d="M112 70H128" stroke="#A8D5BA" stroke-width="8" stroke-linecap="round"/>
  <path d="M64 92H80" stroke="#A8D5BA" stroke-width="8" stroke-linecap="round"/>
  <path d="M112 92H128" stroke="#A8D5BA" stroke-width="8" stroke-linecap="round"/>
</svg>
